<svg width="563" height="447" viewBox="0 0 563 447" fill="none" xmlns="http://www.w3.org/2000/svg">
<g clip-path="url(#clip0_25_118)">
<path d="M322.986 1.04773C322.356 1.6414 321.516 2.7589 321.201 3.59703C320.395 5.48281 320.395 9.53374 321.166 12.537C321.481 13.7593 321.691 14.8069 321.656 14.8419C321.586 14.9117 320.395 15.1212 318.96 15.3308C313.884 16.134 310.523 17.6356 301.771 23.1533C293.929 28.0423 293.054 28.4265 289.343 28.4265C286.893 28.4265 285.492 28.2169 283.042 27.4836C280.066 26.5756 279.891 26.5407 279.436 27.1344C278.14 28.8455 276.915 32.9663 276.915 35.6902V37.122L275.095 36.8776C272.749 36.5633 271.699 35.9696 269.984 34.0489L268.583 32.4425L267.848 33.9791C267.428 34.8172 267.113 35.9696 267.113 36.5284C267.113 38.3094 268.128 41.2428 269.949 44.5953L271.699 47.843H269.984C266.378 47.843 262.947 46.2017 261.617 43.827L260.846 42.4302L260.041 44.1762C259.376 45.608 259.236 46.516 259.236 49.0653C259.271 51.8241 259.411 52.4877 260.356 54.5131C260.951 55.8052 262.037 57.4815 262.737 58.2847C263.472 59.0879 263.997 59.7863 263.927 59.8562C263.857 59.926 261.932 60.8689 259.656 61.9166C257.381 62.9991 254.44 64.5706 253.145 65.4437C248.348 68.6216 244.428 73.8598 243.132 78.7838C242.852 79.9013 242.607 80.949 242.607 81.0887C242.607 81.2284 243.482 80.949 244.533 80.4601C246.213 79.6918 249.924 78.8187 250.239 79.0981C250.309 79.168 249.574 80.2855 248.629 81.6125C245.163 86.4666 243.027 90.5874 241.172 95.9654C240.332 98.4798 240.262 98.8639 240.787 98.6544C245.478 96.7337 248.524 96.1051 250.589 96.5591L251.639 96.7686L249.224 100.959C247.893 103.229 246.178 106.128 245.408 107.385C243.237 110.947 241.732 114.125 240.717 117.268C240.227 118.874 239.806 120.411 239.806 120.69C239.806 121.493 240.927 121.249 243.307 119.852C249.049 116.534 249.399 116.744 246.808 122.227C244.358 127.5 243.377 130.329 243.097 133.262C242.887 135.392 242.887 135.497 243.622 135.497C244.568 135.497 245.653 134.973 246.808 133.925C248.103 132.738 250.344 131.306 250.869 131.306C251.429 131.306 250.764 133.192 248.383 138.221C245.513 144.262 243.062 147.859 237.111 154.809C229.409 163.784 223.668 169.825 219.572 173.248C215.861 176.321 207.179 182.188 202.173 184.981C192.93 190.115 180.432 195.842 170.665 199.369C160.828 202.966 155.822 205.411 150.746 209.147C143.464 214.525 134.852 225.735 129.25 237.189L126.555 242.672L124.979 242.882C114.512 244.279 105.69 249.307 98.3382 258.073C95.2574 261.74 90.0062 269.457 86.7855 275.01C81.8493 283.496 78.7336 288.315 76.0029 291.563C73.4473 294.671 67.776 299.769 64.3102 302.144C59.374 305.497 53.7027 307.243 49.0116 306.789C44.9506 306.405 43.7953 307.522 45.5107 310.176C46.0359 311.014 47.0511 312.237 47.7513 312.865C48.4514 313.529 49.0116 314.227 49.0116 314.367C49.0116 314.751 44.4255 314.716 39.9094 314.297C36.4086 313.948 36.1985 313.983 35.6384 314.681C35.0783 315.345 35.0783 315.519 35.5684 316.672C36.0235 317.859 36.9687 319.5 38.7191 322.154L39.3843 323.202L37.4588 321.84C34.4131 319.675 30.9823 316.846 29.4069 315.135L27.9366 313.529L26.9914 314.437C26.1162 315.31 26.0812 315.519 26.0812 319.186C26.0812 321.596 25.9411 322.993 25.7311 322.923C25.556 322.853 23.6306 320.758 21.4601 318.278C15.0886 310.944 13.2681 307.348 9.48726 294.636C7.45678 287.896 6.75661 287.023 4.83116 289.048C3.53585 290.445 2.83569 292.017 1.71543 295.788C-0.735151 304.414 -0.490093 313.773 2.48561 323.551C4.02597 328.545 6.7216 335.041 9.48726 340.488C19.6747 360.359 35.0433 368.705 54.3328 364.899C71.9069 361.442 85.7352 348.73 96.8328 325.891C101.384 316.532 102.714 312.725 105.725 300.677C108.561 289.153 109.856 284.474 111.361 280.318C112.131 278.153 113.462 274.416 114.267 272.007C115.737 267.746 117.383 264.638 118.468 264.254C118.923 264.079 118.958 264.289 118.748 265.686C118.328 268.445 118.468 279.34 118.993 281.994C119.798 286.325 121.409 292.366 122.844 296.557C124.489 301.306 127.5 308.884 128.515 310.91C129.706 313.179 130.896 318.523 131.281 323.307L131.666 327.777L130.406 333.504C128.935 339.999 126.87 346.25 125.645 347.752C125.189 348.311 123.754 349.987 122.424 351.489C119.868 354.457 119.168 356.098 118.783 359.87C118.538 362.629 119.063 365.946 120.989 373.14C123.054 380.788 124.419 384.769 128.025 393.57C137.547 416.653 136.917 414.523 136.847 422.206C136.812 425.628 136.917 428.631 137.057 428.841C137.197 429.085 137.442 431.355 137.582 433.939C137.932 440.051 138.563 441.413 141.608 443.054C142.799 443.648 145.144 444.59 146.86 445.114C149.73 445.987 150.535 446.092 155.787 446.092C160.793 446.127 161.913 446.022 164.294 445.324C165.834 444.905 167.514 444.311 168.04 444.032C169.265 443.403 169.93 441.587 169.58 439.771C168.95 436.174 164.119 426.431 161.178 422.729C158.622 419.552 157.502 417.247 156.137 412.602C155.542 410.472 153.581 404.36 151.761 398.983C146.65 383.791 145.634 377.61 146.825 369.124C147.77 362.384 150.045 359.067 155.787 356.064C159.988 353.863 165.064 350.232 171.295 345.063C174.551 342.339 177.247 340.139 177.352 340.139C177.422 340.139 176.722 341.361 175.776 342.898C173.641 346.285 170.98 351.559 170.07 354.108C168.355 358.997 167.935 364.375 168.915 368.251C169.79 371.709 177.247 386.376 184.353 398.633C189.43 407.399 189.675 407.923 190.305 412.078C191.32 418.574 191.565 419.202 196.046 425.453L197.271 427.164L197.446 432.438C197.622 437.292 197.727 437.92 198.602 439.841C199.722 442.251 201.577 444.311 203.503 445.289C205.043 446.092 208.509 446.581 214.776 446.86C219.537 447.105 223.038 446.756 226.048 445.743C228.744 444.87 228.884 444.59 228.149 441.902C227.133 438.025 225.103 434.254 219.397 425.768C216.421 421.298 213.235 416.269 212.395 414.593C210.014 410.018 202.488 390.566 200.107 382.918C198.427 377.506 196.746 370.94 196.746 369.718C196.746 367.762 200.632 360.883 203.643 357.565C204.308 356.832 207.739 354.178 211.31 351.628C220.447 345.098 226.363 340.279 231.264 335.425C237.286 329.453 239.806 325.751 242.747 318.627C245.618 311.608 245.828 310.071 246.073 292.122C246.318 274.207 246.248 274.8 249.504 271.308C251.569 269.108 252.444 268.654 258.361 266.803C271.384 262.752 283.462 256.816 292.529 250.006C297.465 246.304 307.232 236.98 312.028 231.358C314.339 228.669 318.54 223.779 321.341 220.532C329.323 211.347 331.808 208.169 336.849 200.626C339.405 196.785 343.606 190.813 346.197 187.321L350.853 181.035L353.653 181.838C355.264 182.292 357.399 182.641 358.659 182.641C360.55 182.641 361.215 182.432 364.226 180.895L367.657 179.184L367.412 180.127C366.396 184.143 366.641 187.565 368.252 191.407C369.477 194.34 372.488 198.88 375.008 201.639C376.654 203.455 377.039 203.699 378.509 203.839C380.82 204.118 382.64 203.106 386.491 199.509C393.213 193.188 397.554 186.413 400.354 177.927L401.51 174.435L403.015 174.575C403.855 174.609 405.15 174.784 405.921 174.924L407.286 175.133L408.056 180.197C408.931 185.819 409.071 190.289 408.511 193.991C407.846 198.321 407.986 203.49 408.861 205.865C409.246 206.982 409.596 208.274 409.596 208.693C409.596 209.776 408.091 211.452 405.781 212.954C404.695 213.687 403.33 214.979 402.7 215.922C401.124 218.227 400.949 220.078 401.895 223.221C403.925 229.996 408.896 235.688 415.373 238.726C418.699 240.263 420.099 240.507 421.079 239.669C421.779 239.11 421.954 238.447 422.374 234.326C423.11 227.621 423.565 224.757 424.335 221.684C424.965 219.1 425 217.703 424.93 189.731L424.825 160.466L423.985 158.72C422.795 156.31 419.539 153.133 417.053 151.98C415.093 151.072 414.848 151.037 409.701 151.142C406.761 151.177 404.345 151.142 404.345 151.037C404.345 150.932 405.15 149.151 406.131 147.091C409.491 140.002 409.841 138.151 408.511 133.402C406.796 127.151 403.995 123.414 399.864 121.843C398.114 121.214 397.414 121.144 394.018 121.284C391.917 121.389 386.771 122.017 382.64 122.681C378.509 123.344 374.308 124.008 373.328 124.112L371.542 124.322L370.247 122.122C368.217 118.665 365.101 114.684 361.81 111.331C359.115 108.607 358.834 108.188 358.834 106.966C358.834 105.08 357.504 92.0891 357.049 89.5747C356.839 88.4223 356.069 84.8253 355.299 81.6125C353.968 75.8504 352.813 69.774 353.058 69.5645C353.128 69.4946 354.669 69.774 356.454 70.228C359.29 70.9264 360.55 71.0312 366.186 71.0312C372.313 71.0312 372.838 70.9962 375.813 70.0534C382.465 67.958 383.9 68.0628 388.662 70.9613C397.344 76.2695 400.984 77.1425 404.17 74.663C406.201 73.0916 413.097 65.1294 414.112 63.2087C417.088 57.6212 415.198 53.4655 407.601 48.8209C402.07 45.4334 396.643 41.3825 391.567 36.8077C384.461 30.3821 381.73 28.5312 376.269 26.3661C374.938 25.8423 373.888 25.2835 373.888 25.1089C373.888 24.3755 374.903 22.385 376.654 19.7659C378.684 16.6578 378.929 15.3308 377.599 14.4927C376.339 13.6545 373.293 13.4799 369.512 13.9688C367.657 14.2133 366.081 14.353 366.011 14.2482C365.941 14.1784 366.501 12.7466 367.271 11.1052C369.022 7.33367 368.847 6.63523 366.186 6.63523C363.981 6.63523 357.644 8.27656 352.638 10.1274C348.997 11.4894 348.647 11.5592 347.737 11.1052C347.212 10.8259 345.251 9.7782 343.431 8.80039C341.61 7.82257 337.549 5.93679 334.434 4.57484C331.318 3.24781 327.817 1.6414 326.662 1.08265C325.507 0.488979 324.456 7.24831e-05 324.386 7.24831e-05C324.281 7.24831e-05 323.651 0.488979 322.986 1.04773Z" fill="#750E6E"/>
</g>
<path d="M320.728 282.128C320.728 285.968 319.469 289.061 316.952 291.408C314.435 293.755 310.659 294.928 305.624 294.928H296.6V314H292.12V269.264H305.624C310.616 269.264 314.371 270.437 316.888 272.784C319.448 275.131 320.728 278.245 320.728 282.128ZM305.624 291.088C312.621 291.088 316.12 288.101 316.12 282.128C316.12 279.141 315.288 276.88 313.624 275.344C311.96 273.808 309.293 273.04 305.624 273.04H296.6V291.088H305.624ZM332.725 272.912V289.616H349.685V293.328H332.725V310.288H351.605V314H328.245V269.2H351.605V272.912H332.725ZM395.633 282.32C394.353 279.376 392.39 277.072 389.745 275.408C387.142 273.701 384.07 272.848 380.529 272.848C377.201 272.848 374.214 273.616 371.569 275.152C368.923 276.688 366.833 278.885 365.297 281.744C363.761 284.56 362.993 287.845 362.993 291.6C362.993 295.355 363.761 298.661 365.297 301.52C366.833 304.379 368.923 306.576 371.569 308.112C374.214 309.648 377.201 310.416 380.529 310.416C383.643 310.416 386.438 309.755 388.913 308.432C391.43 307.067 393.435 305.147 394.929 302.672C396.465 300.155 397.339 297.232 397.553 293.904H378.737V290.256H402.289V293.52C402.075 297.445 401.009 301.008 399.089 304.208C397.169 307.365 394.587 309.861 391.345 311.696C388.145 313.531 384.539 314.448 380.529 314.448C376.39 314.448 372.635 313.488 369.265 311.568C365.894 309.605 363.227 306.896 361.265 303.44C359.345 299.941 358.385 295.995 358.385 291.6C358.385 287.205 359.345 283.28 361.265 279.824C363.227 276.325 365.894 273.616 369.265 271.696C372.635 269.733 376.39 268.752 380.529 268.752C385.307 268.752 389.489 269.947 393.073 272.336C396.657 274.725 399.259 278.053 400.881 282.32H395.633ZM436.415 303.376H416.063L412.159 314H407.423L423.743 269.84H428.799L445.055 314H440.319L436.415 303.376ZM435.071 299.664L426.239 275.472L417.407 299.664H435.071ZM465.813 314.448C462.869 314.448 460.266 313.936 458.005 312.912C455.786 311.888 454.037 310.459 452.757 308.624C451.477 306.789 450.794 304.741 450.709 302.48H455.445C455.658 304.656 456.618 306.576 458.325 308.24C460.032 309.861 462.528 310.672 465.813 310.672C468.842 310.672 471.232 309.904 472.981 308.368C474.773 306.789 475.669 304.805 475.669 302.416C475.669 300.496 475.178 298.96 474.197 297.808C473.216 296.613 472 295.739 470.549 295.184C469.098 294.587 467.093 293.947 464.533 293.264C461.546 292.453 459.178 291.664 457.429 290.896C455.68 290.128 454.186 288.933 452.949 287.312C451.712 285.691 451.093 283.493 451.093 280.72C451.093 278.416 451.69 276.368 452.885 274.576C454.08 272.741 455.765 271.312 457.941 270.288C460.117 269.264 462.613 268.752 465.429 268.752C469.568 268.752 472.896 269.776 475.413 271.824C477.973 273.829 479.445 276.432 479.829 279.632H474.965C474.666 277.797 473.664 276.176 471.957 274.768C470.25 273.317 467.946 272.592 465.045 272.592C462.357 272.592 460.117 273.317 458.325 274.768C456.533 276.176 455.637 278.117 455.637 280.592C455.637 282.469 456.128 283.984 457.109 285.136C458.09 286.288 459.306 287.163 460.757 287.76C462.25 288.357 464.256 288.997 466.773 289.68C469.674 290.491 472.021 291.301 473.813 292.112C475.605 292.88 477.12 294.075 478.357 295.696C479.594 297.317 480.213 299.493 480.213 302.224C480.213 304.315 479.658 306.299 478.549 308.176C477.44 310.053 475.797 311.568 473.621 312.72C471.445 313.872 468.842 314.448 465.813 314.448ZM493.158 269.264V297.424C493.158 301.861 494.203 305.147 496.294 307.28C498.427 309.413 501.329 310.48 504.998 310.48C508.667 310.48 511.526 309.435 513.574 307.344C515.665 305.211 516.71 301.904 516.71 297.424V269.264H521.19V297.36C521.19 303.035 519.675 307.301 516.646 310.16C513.659 313.019 509.755 314.448 504.934 314.448C500.113 314.448 496.187 313.019 493.158 310.16C490.171 307.301 488.678 303.035 488.678 297.36V269.264H493.158ZM544.751 314.448C541.807 314.448 539.204 313.936 536.943 312.912C534.724 311.888 532.975 310.459 531.695 308.624C530.415 306.789 529.732 304.741 529.647 302.48H534.383C534.596 304.656 535.556 306.576 537.263 308.24C538.969 309.861 541.465 310.672 544.751 310.672C547.78 310.672 550.169 309.904 551.919 308.368C553.711 306.789 554.607 304.805 554.607 302.416C554.607 300.496 554.116 298.96 553.135 297.808C552.153 296.613 550.937 295.739 549.487 295.184C548.036 294.587 546.031 293.947 543.471 293.264C540.484 292.453 538.116 291.664 536.367 290.896C534.617 290.128 533.124 288.933 531.887 287.312C530.649 285.691 530.031 283.493 530.031 280.72C530.031 278.416 530.628 276.368 531.823 274.576C533.017 272.741 534.703 271.312 536.879 270.288C539.055 269.264 541.551 268.752 544.367 268.752C548.505 268.752 551.833 269.776 554.351 271.824C556.911 273.829 558.383 276.432 558.767 279.632H553.903C553.604 277.797 552.601 276.176 550.895 274.768C549.188 273.317 546.884 272.592 543.983 272.592C541.295 272.592 539.055 273.317 537.263 274.768C535.471 276.176 534.575 278.117 534.575 280.592C534.575 282.469 535.065 283.984 536.047 285.136C537.028 286.288 538.244 287.163 539.695 287.76C541.188 288.357 543.193 288.997 545.711 289.68C548.612 290.491 550.959 291.301 552.751 292.112C554.543 292.88 556.057 294.075 557.295 295.696C558.532 297.317 559.151 299.493 559.151 302.224C559.151 304.315 558.596 306.299 557.487 308.176C556.377 310.053 554.735 311.568 552.559 312.72C550.383 313.872 547.78 314.448 544.751 314.448Z" fill="#750E6E"/>
<defs>
<clipPath id="clip0_25_118">
<rect width="425" height="447" fill="white"/>
</clipPath>
</defs>
</svg>
